<?xml version="1.0" encoding="UTF-8"?>
<svg width="48px" height="96px" viewBox="0 0 48 96" version="1.1" xmlns="http://www.w3.org/2000/svg" xmlns:xlink="http://www.w3.org/1999/xlink">
    <title>eraser</title>
    <g id="Page-1" stroke="none" stroke-width="1" fill="none" fill-rule="evenodd">
        <g id="eraser" transform="translate(-5.000000, -3.000000)">
            <g transform="translate(5.000000, 3.000000)">
                <rect id="Rectangle" x="0" y="0" width="48" height="96"></rect>
                <path d="M6.75735931,30.7573593 C9.10050506,28.4142136 12.8994949,28.4142136 15.2426407,30.7573593 L15.2426407,30.7573593 L23.728,39.243 L32.2132034,30.7573593 C34.5563492,28.4142136 38.3553391,28.4142136 40.6984848,30.7573593 C43.0416306,33.1005051 43.0416306,36.8994949 40.6984848,39.2426407 L32.213,47.728 L40.6984848,56.2132034 C42.9815499,58.4962685 43.04009,62.1614762 40.8741052,64.5154204 L40.6984848,64.6984848 C38.3553391,67.0416306 34.5563492,67.0416306 32.2132034,64.6984848 L32.2132034,64.6984848 L23.728,56.213 L15.2426407,64.6984848 C12.8994949,67.0416306 9.10050506,67.0416306 6.75735931,64.6984848 C4.41421356,62.3553391 4.41421356,58.5563492 6.75735931,56.2132034 L15.243,47.728 L6.75735931,39.2426407 C4.47429422,36.9595756 4.41575409,33.2943679 6.58173892,30.9404237 Z" id="Combined-Shape" fill="#B24A4A"></path>
            </g>
        </g>
    </g>
</svg>